{"title":"2012.2009.DVDRip.XviD[ENG]-NWO","uid":5604319,"size":732832453,"categoryP":"video","categoryS":"movies","magnet":"?xt=urn:btih:dc354d5f419c17585e2f23e2e45af1c0ff53dd72&amp;dn=2012.2009.DVDRip.XviD%5BENG%5D-NWO&amp;tr=udp%3A%2F%2Ftracker.openbittorrent.com%3A80&amp;tr=udp%3A%2F%2Fopen.demonii.com%3A1337&amp;tr=udp%3A%2F%2Ftracker.coppersurfer.tk%3A6969&amp;tr=udp%3A%2F%2Fexodus.desync.com%3A6969","seeders":0,"leechers":0,"uploader":"exacto44","files":3,"time":1275502172,"description":"Format : AVI\nFormat/Info : Audio Video Interleave\nFile size : 698 MiB\nDuration : 2h 37mn\nOverall bit rate : 618 Kbps\nWriting application : VirtualDubMod 1.5.10.2 (build 2540/release)\nWriting library : VirtualDubMod build 2540/release\n\nVideo\nID : 0\nFormat : MPEG-4 Visual\nFormat profile : Advanced Simple@L5\nFormat settings, BVOP : Yes\nFormat settings, QPel : No\nFormat settings, GMC : No warppoints\nFormat settings, Matrix : Default (H.263)\nCodec ID : XVID\nCodec ID/Hint : XviD\nDuration : 2h 37mn\nBit rate : 496 Kbps\nWidth : 656 pixels\nHeight : 272 pixels\nDisplay aspect ratio : 2.40:1\nFrame rate : 23.976 fps\nResolution : 8 bits\nColorimetry : 4:2:0\nScan type : Progressive\nBits/(Pixel*Frame) : 0.116\nStream size : 560 MiB (80%)\nWriting library : XviD 1.2.1 (UTC 2008-12-04)\n\nAudio\nID : 1\nFormat : MPEG Audio\nFormat version : Version 1\nFormat profile : Layer 3\nFormat_Settings_Mode : Joint stereo\nFormat_Settings_ModeExtension : MS Stereo\nCodec ID : 55\nCodec ID/Hint : MP3\nDuration : 2h 37mn\nBit rate mode : Variable\nBit rate : 110 Kbps\nNominal bit rate : 112 Kbps\nChannel(s) : 2 channels\nSampling rate : 44.1 KHz\nStream size : 124 MiB (18%)\nAlignment : Aligned on interleaves\nInterleave, duration : 26 ms (0.63 video frame)\nInterleave, preload duration : 176 ms\nWriting library : LAME3.90.\nEncoding settings : -m j -V 4 -q 2 -lowpass 16 --abr 112","torrent":{"xt":"urn:btih:dc354d5f419c17585e2f23e2e45af1c0ff53dd72","amp;dn":"2012.2009.DVDRip.XviD%5BENG%5D-NWO","amp;tr":["udp%3A%2F%2Ftracker.openbittorrent.com%3A80","udp%3A%2F%2Fopen.demonii.com%3A1337","udp%3A%2F%2Ftracker.coppersurfer.tk%3A6969","udp%3A%2F%2Fexodus.desync.com%3A6969"],"infoHash":"dc354d5f419c17585e2f23e2e45af1c0ff53dd72","infoHashBuffer":{"type":"Buffer","data":[220,53,77,95,65,156,23,88,94,47,35,226,228,90,241,192,255,83,221,114]},"announce":[],"urlList":[]}}